<svg width="268" height="188" viewBox="0 0 268 188" fill="none" xmlns="http://www.w3.org/2000/svg">
<g filter="url(#filter0_di_15_49)">
<path d="M62.3788 180C53.1968 180 45.9451 176.876 40.6237 170.627C35.3023 164.506 33.059 156.281 33.8937 145.951L36.2414 116.876C36.6588 111.647 35.9284 107.694 34.0502 105.016C32.1721 102.338 28.9375 100.999 24.3465 100.999H4V79.0011H24.3465C28.9375 79.0011 32.1721 77.6621 34.0502 74.9841C35.9284 72.3061 36.6588 68.4166 36.2414 63.3156L33.8937 33.2837C33.059 23.2094 35.3023 15.1753 40.6237 9.18172C45.9451 3.06057 53.1968 0 62.3788 0H73.1781V21.9979H65.196C61.3354 21.9979 58.3617 23.2094 56.2749 25.6323C54.1881 27.9277 53.249 31.2434 53.4577 35.5792L55.8053 65.4198C56.327 71.9235 55.0228 77.2795 51.8926 81.4878C48.8667 85.6961 44.5887 88.3741 39.0586 89.5218C44.5887 90.797 48.8667 93.6663 51.8926 98.1297C55.0228 102.593 56.327 108.077 55.8053 114.58L53.4577 144.421C53.1446 148.629 54.0315 151.945 56.1184 154.368C58.3095 156.663 61.3354 157.811 65.196 157.811H73.1781V180H62.3788Z" fill="#7B57FF"/>
<path d="M96.4372 179.809L151.216 0H171.563L116.784 179.809H96.4372Z" fill="#FAFAFA"/>
<path d="M194.822 180V157.811H202.804C206.665 157.811 209.638 156.663 211.725 154.368C213.916 151.945 214.855 148.629 214.542 144.421L212.195 114.58C211.673 108.077 212.925 102.593 215.951 98.1297C219.081 93.5388 223.411 90.6695 228.941 89.5218C223.307 88.3741 218.977 85.6961 215.951 81.4878C212.925 77.2795 211.673 71.9235 212.195 65.4198L214.542 35.5792C214.751 31.2434 213.812 27.9277 211.725 25.6323C209.638 23.2094 206.665 21.9979 202.804 21.9979H194.822V0H205.621C214.803 0 222.055 3.06057 227.376 9.18172C232.698 15.1753 234.941 23.2094 234.106 33.2837L231.759 63.3156C231.341 68.4166 232.072 72.3061 233.95 74.9841C235.828 77.6621 239.062 79.0011 243.654 79.0011H264V100.999H243.654C239.062 100.999 235.828 102.338 233.95 105.016C232.072 107.694 231.341 111.647 231.759 116.876L234.106 145.951C234.941 156.281 232.698 164.506 227.376 170.627C222.055 176.876 214.803 180 205.621 180H194.822Z" fill="#7B57FF"/>
</g>
<defs>
<filter id="filter0_di_15_49" x="0" y="0" width="268" height="188" filterUnits="userSpaceOnUse" color-interpolation-filters="sRGB">
<feFlood flood-opacity="0" result="BackgroundImageFix"/>
<feColorMatrix in="SourceAlpha" type="matrix" values="0 0 0 0 0 0 0 0 0 0 0 0 0 0 0 0 0 0 127 0" result="hardAlpha"/>
<feOffset dy="4"/>
<feGaussianBlur stdDeviation="2"/>
<feComposite in2="hardAlpha" operator="out"/>
<feColorMatrix type="matrix" values="0 0 0 0 0 0 0 0 0 0 0 0 0 0 0 0 0 0 0.25 0"/>
<feBlend mode="normal" in2="BackgroundImageFix" result="effect1_dropShadow_15_49"/>
<feBlend mode="normal" in="SourceGraphic" in2="effect1_dropShadow_15_49" result="shape"/>
<feColorMatrix in="SourceAlpha" type="matrix" values="0 0 0 0 0 0 0 0 0 0 0 0 0 0 0 0 0 0 127 0" result="hardAlpha"/>
<feOffset dy="4"/>
<feGaussianBlur stdDeviation="2"/>
<feComposite in2="hardAlpha" operator="arithmetic" k2="-1" k3="1"/>
<feColorMatrix type="matrix" values="0 0 0 0 0 0 0 0 0 0 0 0 0 0 0 0 0 0 0.25 0"/>
<feBlend mode="normal" in2="shape" result="effect2_innerShadow_15_49"/>
</filter>
</defs>
</svg>
