<svg width="348" height="57" viewBox="0 0 348 57" fill="none" xmlns="http://www.w3.org/2000/svg">
<g filter="url(#filter0_di_13_38)">
<path d="M22.216 45.328C19.4 45.328 17.176 44.544 15.544 42.976C13.912 41.44 13.224 39.376 13.48 36.784L14.2 29.488C14.328 28.176 14.104 27.184 13.528 26.512C12.952 25.84 11.96 25.504 10.552 25.504H4.31201V19.984H10.552C11.96 19.984 12.952 19.648 13.528 18.976C14.104 18.304 14.328 17.328 14.2 16.048L13.48 8.512C13.224 5.984 13.912 3.968 15.544 2.464C17.176 0.928003 19.4 0.160004 22.216 0.160004H25.528V5.68H23.08C21.896 5.68 20.984 5.984 20.344 6.592C19.704 7.168 19.416 8 19.48 9.088L20.2 16.576C20.36 18.208 19.96 19.552 19 20.608C18.072 21.664 16.76 22.336 15.064 22.624C16.76 22.944 18.072 23.664 19 24.784C19.96 25.904 20.36 27.28 20.2 28.912L19.48 36.4C19.384 37.456 19.656 38.288 20.296 38.896C20.968 39.472 21.896 39.76 23.08 39.76H25.528V45.328H22.216Z" fill="#7B57FF"/>
<path d="M33.4773 48.64V31.12V13.6H39.3333V18.352H39.4293C39.9093 16.688 40.7573 15.408 41.9733 14.512C43.2213 13.584 44.7573 13.12 46.5813 13.12C49.1733 13.12 51.2533 14.032 52.8213 15.856C54.4213 17.68 55.2213 20.128 55.2213 23.2V30.352C55.2213 33.456 54.4213 35.92 52.8213 37.744C51.2533 39.568 49.1733 40.48 46.5813 40.48C44.7893 40.48 43.2693 40.032 42.0213 39.136C40.7733 38.208 39.9093 36.912 39.4293 35.248H39.3333L39.4773 41.248V48.64H33.4773ZM44.3733 35.296C45.9093 35.296 47.0933 34.848 47.9253 33.952C48.7893 33.056 49.2213 31.776 49.2213 30.112V23.488C49.2213 21.824 48.7893 20.544 47.9253 19.648C47.0933 18.752 45.9093 18.304 44.3733 18.304C42.8373 18.304 41.6373 18.768 40.7733 19.696C39.9093 20.624 39.4773 21.936 39.4773 23.632V29.968C39.4773 31.664 39.9093 32.976 40.7733 33.904C41.6373 34.832 42.8373 35.296 44.3733 35.296Z" fill="#FAFAFA"/>
<path d="M70.0345 40.48C67.3145 40.48 65.1705 39.776 63.6025 38.368C62.0345 36.928 61.2505 34.976 61.2505 32.512C61.2505 29.92 62.1465 27.92 63.9385 26.512C65.7305 25.072 68.2265 24.352 71.4265 24.352H77.7625V22.144C77.7625 20.864 77.3465 19.872 76.5145 19.168C75.6825 18.464 74.5145 18.112 73.0105 18.112C71.6345 18.112 70.4985 18.4 69.6025 18.976C68.7385 19.552 68.2585 20.32 68.1625 21.28H62.4505C62.5785 18.816 63.6185 16.848 65.5705 15.376C67.5545 13.872 70.0985 13.12 73.2025 13.12C76.4665 13.12 79.0425 13.92 80.9305 15.52C82.8185 17.12 83.7625 19.312 83.7625 22.096V40H77.9545V35.536H77.8585C77.5065 37.072 76.6425 38.288 75.2665 39.184C73.8905 40.048 72.1465 40.48 70.0345 40.48ZM72.0025 36.016C73.6985 36.016 75.0745 35.6 76.1305 34.768C77.2185 33.904 77.7625 32.768 77.7625 31.36V28.192H71.5705C70.2265 28.192 69.1705 28.544 68.4025 29.248C67.6345 29.92 67.2505 30.848 67.2505 32.032C67.2505 33.28 67.6665 34.256 68.4985 34.96C69.3625 35.664 70.5305 36.016 72.0025 36.016Z" fill="#FAFAFA"/>
<path d="M104.624 40C102.16 40 100.192 39.296 98.7198 37.888C97.2798 36.448 96.5598 34.512 96.5598 32.08V19.024H89.4078V13.6H96.5598V6.16H102.608V13.6H112.736V19.024H102.608V31.936C102.608 32.704 102.816 33.344 103.232 33.856C103.68 34.336 104.288 34.576 105.056 34.576H112.256V40H104.624Z" fill="#FAFAFA"/>
<path d="M120.589 40V13.6H126.445V18.64H126.589C126.845 16.912 127.613 15.568 128.893 14.608C130.173 13.616 131.805 13.12 133.789 13.12C136.509 13.12 138.685 14.016 140.317 15.808C141.949 17.568 142.765 19.984 142.765 23.056V25.216H136.477V23.488C136.477 21.856 136.045 20.592 135.181 19.696C134.349 18.768 133.133 18.304 131.533 18.304C128.237 18.304 126.589 20.144 126.589 23.824V40H120.589Z" fill="#FAFAFA"/>
<path d="M148.554 40V34.576H157.578V19.024H149.514V13.6H163.578V34.576H171.69V40H148.554ZM160.17 9.184C158.954 9.184 157.994 8.88 157.29 8.27201C156.586 7.632 156.234 6.784 156.234 5.728C156.234 4.672 156.586 3.84 157.29 3.232C157.994 2.592 158.954 2.27201 160.17 2.27201C161.386 2.27201 162.346 2.592 163.05 3.232C163.754 3.84 164.106 4.672 164.106 5.728C164.106 6.784 163.754 7.632 163.05 8.27201C162.346 8.88 161.386 9.184 160.17 9.184Z" fill="#FAFAFA"/>
<path d="M188.232 40.48C185.992 40.48 184.024 40.064 182.328 39.232C180.664 38.368 179.368 37.168 178.44 35.632C177.512 34.064 177.048 32.224 177.048 30.112V23.488C177.048 21.376 177.512 19.552 178.44 18.016C179.368 16.448 180.664 15.248 182.328 14.416C184.024 13.552 185.992 13.12 188.232 13.12C191.56 13.12 194.216 13.984 196.2 15.712C198.184 17.408 199.224 19.728 199.32 22.672H193.464C193.368 21.296 192.84 20.24 191.88 19.504C190.952 18.736 189.736 18.352 188.232 18.352C186.632 18.352 185.368 18.8 184.44 19.696C183.512 20.56 183.048 21.808 183.048 23.44V30.112C183.048 31.744 183.512 33.008 184.44 33.904C185.368 34.8 186.632 35.248 188.232 35.248C189.768 35.248 191 34.88 191.928 34.144C192.856 33.376 193.368 32.304 193.464 30.928H199.32C199.224 33.872 198.184 36.208 196.2 37.936C194.216 39.632 191.56 40.48 188.232 40.48Z" fill="#FAFAFA"/>
<path d="M206.309 40V4.96H212.309V23.968H216.533L222.965 13.6H229.637L221.669 26.368L229.781 40H222.965L216.533 29.056H212.309V40H206.309Z" fill="#FAFAFA"/>
<path d="M245.65 40.48C244.274 40.48 243.17 40.08 242.338 39.28C241.538 38.48 241.138 37.392 241.138 36.016C241.138 34.64 241.538 33.552 242.338 32.752C243.17 31.92 244.274 31.504 245.65 31.504C247.026 31.504 248.114 31.92 248.914 32.752C249.746 33.552 250.162 34.64 250.162 36.016C250.162 37.392 249.746 38.48 248.914 39.28C248.114 40.08 247.026 40.48 245.65 40.48Z" fill="#7B57FF"/>
<path d="M263.103 48.64V43.216H270.879C272.415 43.216 273.631 42.752 274.527 41.824C275.423 40.928 275.871 39.696 275.871 38.128V19.024H264.063V13.6H281.871V38.272C281.871 41.472 280.911 44 278.991 45.856C277.071 47.712 274.479 48.64 271.215 48.64H263.103ZM278.799 9.184C277.583 9.184 276.623 8.88 275.919 8.27201C275.215 7.632 274.863 6.784 274.863 5.728C274.863 4.672 275.215 3.84 275.919 3.232C276.623 2.592 277.583 2.27201 278.799 2.27201C280.015 2.27201 280.975 2.592 281.679 3.232C282.383 3.84 282.735 4.672 282.735 5.728C282.735 6.784 282.383 7.632 281.679 8.27201C280.975 8.88 280.015 9.184 278.799 9.184Z" fill="#FAFAFA"/>
<path d="M302.204 40.432C300.188 40.432 298.413 40.128 296.877 39.52C295.341 38.88 294.141 37.984 293.277 36.832C292.445 35.68 292.029 34.32 292.029 32.752H298.077C298.077 33.68 298.445 34.4 299.181 34.912C299.949 35.392 300.973 35.632 302.253 35.632H304.316C305.82 35.632 306.941 35.36 307.677 34.816C308.413 34.272 308.781 33.52 308.781 32.56C308.781 30.736 307.42 29.616 304.701 29.2L301.005 28.72C295.469 27.92 292.701 25.28 292.701 20.8C292.701 18.304 293.533 16.416 295.197 15.136C296.893 13.824 299.341 13.168 302.541 13.168H304.365C307.341 13.168 309.725 13.84 311.517 15.184C313.341 16.496 314.253 18.24 314.253 20.416H308.204C308.204 19.648 307.869 19.056 307.197 18.64C306.525 18.192 305.564 17.968 304.316 17.968H302.493C299.869 17.968 298.557 18.912 298.557 20.8C298.557 22.432 299.725 23.424 302.061 23.776L305.805 24.352C308.781 24.768 310.988 25.632 312.428 26.944C313.9 28.256 314.637 30.08 314.637 32.416C314.637 34.944 313.757 36.912 311.997 38.32C310.269 39.728 307.708 40.432 304.316 40.432H302.204Z" fill="#FAFAFA"/>
<path d="M321.866 45.328V39.76H324.314C325.498 39.76 326.41 39.472 327.05 38.896C327.722 38.288 328.01 37.456 327.914 36.4L327.194 28.912C327.034 27.28 327.418 25.904 328.346 24.784C329.306 23.632 330.634 22.912 332.33 22.624C330.602 22.336 329.274 21.664 328.346 20.608C327.418 19.552 327.034 18.208 327.194 16.576L327.914 9.088C327.978 8 327.69 7.168 327.05 6.592C326.41 5.984 325.498 5.68 324.314 5.68H321.866V0.160004H325.178C327.994 0.160004 330.218 0.928003 331.85 2.464C333.482 3.968 334.17 5.984 333.914 8.512L333.194 16.048C333.066 17.328 333.29 18.304 333.866 18.976C334.442 19.648 335.434 19.984 336.842 19.984H343.082V25.504H336.842C335.434 25.504 334.442 25.84 333.866 26.512C333.29 27.184 333.066 28.176 333.194 29.488L333.914 36.784C334.17 39.376 333.482 41.44 331.85 42.976C330.218 44.544 327.994 45.328 325.178 45.328H321.866Z" fill="#7B57FF"/>
</g>
<defs>
<filter id="filter0_di_13_38" x="0.312012" y="0.160004" width="346.77" height="56.48" filterUnits="userSpaceOnUse" color-interpolation-filters="sRGB">
<feFlood flood-opacity="0" result="BackgroundImageFix"/>
<feColorMatrix in="SourceAlpha" type="matrix" values="0 0 0 0 0 0 0 0 0 0 0 0 0 0 0 0 0 0 127 0" result="hardAlpha"/>
<feOffset dy="4"/>
<feGaussianBlur stdDeviation="2"/>
<feComposite in2="hardAlpha" operator="out"/>
<feColorMatrix type="matrix" values="0 0 0 0 0 0 0 0 0 0 0 0 0 0 0 0 0 0 0.25 0"/>
<feBlend mode="normal" in2="BackgroundImageFix" result="effect1_dropShadow_13_38"/>
<feBlend mode="normal" in="SourceGraphic" in2="effect1_dropShadow_13_38" result="shape"/>
<feColorMatrix in="SourceAlpha" type="matrix" values="0 0 0 0 0 0 0 0 0 0 0 0 0 0 0 0 0 0 127 0" result="hardAlpha"/>
<feOffset dy="4"/>
<feGaussianBlur stdDeviation="2"/>
<feComposite in2="hardAlpha" operator="arithmetic" k2="-1" k3="1"/>
<feColorMatrix type="matrix" values="0 0 0 0 0 0 0 0 0 0 0 0 0 0 0 0 0 0 0.25 0"/>
<feBlend mode="normal" in2="shape" result="effect2_innerShadow_13_38"/>
</filter>
</defs>
</svg>
