<svg width="89" height="54" viewBox="0 0 89 54" fill="none" xmlns="http://www.w3.org/2000/svg">
<g filter="url(#filter0_di_15_48)">
<path d="M22.216 45.328C19.4 45.328 17.176 44.544 15.544 42.976C13.912 41.44 13.224 39.376 13.48 36.784L14.2 29.488C14.328 28.176 14.104 27.184 13.528 26.512C12.952 25.84 11.96 25.504 10.552 25.504H4.31201V19.984H10.552C11.96 19.984 12.952 19.648 13.528 18.976C14.104 18.304 14.328 17.328 14.2 16.048L13.48 8.512C13.224 5.984 13.912 3.968 15.544 2.464C17.176 0.928003 19.4 0.160004 22.216 0.160004H25.528V5.68H23.08C21.896 5.68 20.984 5.984 20.344 6.592C19.704 7.168 19.416 8 19.48 9.088L20.2 16.576C20.36 18.208 19.96 19.552 19 20.608C18.072 21.664 16.76 22.336 15.064 22.624C16.76 22.944 18.072 23.664 19 24.784C19.96 25.904 20.36 27.28 20.2 28.912L19.48 36.4C19.384 37.456 19.656 38.288 20.296 38.896C20.968 39.472 21.896 39.76 23.08 39.76H25.528V45.328H22.216Z" fill="#7B57FF"/>
<path d="M32.6613 45.28L49.4613 0.160004H55.7013L38.9013 45.28H32.6613Z" fill="#FAFAFA"/>
<path d="M62.8345 45.328V39.76H65.2825C66.4665 39.76 67.3785 39.472 68.0185 38.896C68.6905 38.288 68.9785 37.456 68.8825 36.4L68.1625 28.912C68.0025 27.28 68.3865 25.904 69.3145 24.784C70.2745 23.632 71.6025 22.912 73.2985 22.624C71.5705 22.336 70.2425 21.664 69.3145 20.608C68.3865 19.552 68.0025 18.208 68.1625 16.576L68.8825 9.088C68.9465 8 68.6585 7.168 68.0185 6.592C67.3785 5.984 66.4665 5.68 65.2825 5.68H62.8345V0.160004H66.1465C68.9625 0.160004 71.1865 0.928003 72.8185 2.464C74.4505 3.968 75.1385 5.984 74.8825 8.512L74.1625 16.048C74.0345 17.328 74.2585 18.304 74.8345 18.976C75.4105 19.648 76.4025 19.984 77.8105 19.984H84.0505V25.504H77.8105C76.4025 25.504 75.4105 25.84 74.8345 26.512C74.2585 27.184 74.0345 28.176 74.1625 29.488L74.8825 36.784C75.1385 39.376 74.4505 41.44 72.8185 42.976C71.1865 44.544 68.9625 45.328 66.1465 45.328H62.8345Z" fill="#7B57FF"/>
</g>
<defs>
<filter id="filter0_di_15_48" x="0.312012" y="0.160004" width="87.7385" height="53.168" filterUnits="userSpaceOnUse" color-interpolation-filters="sRGB">
<feFlood flood-opacity="0" result="BackgroundImageFix"/>
<feColorMatrix in="SourceAlpha" type="matrix" values="0 0 0 0 0 0 0 0 0 0 0 0 0 0 0 0 0 0 127 0" result="hardAlpha"/>
<feOffset dy="4"/>
<feGaussianBlur stdDeviation="2"/>
<feComposite in2="hardAlpha" operator="out"/>
<feColorMatrix type="matrix" values="0 0 0 0 0 0 0 0 0 0 0 0 0 0 0 0 0 0 0.25 0"/>
<feBlend mode="normal" in2="BackgroundImageFix" result="effect1_dropShadow_15_48"/>
<feBlend mode="normal" in="SourceGraphic" in2="effect1_dropShadow_15_48" result="shape"/>
<feColorMatrix in="SourceAlpha" type="matrix" values="0 0 0 0 0 0 0 0 0 0 0 0 0 0 0 0 0 0 127 0" result="hardAlpha"/>
<feOffset dy="4"/>
<feGaussianBlur stdDeviation="2"/>
<feComposite in2="hardAlpha" operator="arithmetic" k2="-1" k3="1"/>
<feColorMatrix type="matrix" values="0 0 0 0 0 0 0 0 0 0 0 0 0 0 0 0 0 0 0.25 0"/>
<feBlend mode="normal" in2="shape" result="effect2_innerShadow_15_48"/>
</filter>
</defs>
</svg>
